# xmcd CD database file
#
# Track frame offsets:
#	150
#	18215
#	28640
#	45930
#	57732
#	69237
#	79272
#	92822
#	107477
#	119080
#	135885
#	152737
#	164530
#	176762
#	190390
#
# Disc length: 2738 seconds
#
# Revision: 0
# Processed by: cddbd v1.4PL0 Copyright (c) Steve Scherf et al.
# Submitted via: Feurio! 1.65 - http://www.feurio.com
#
DISCID=c30ab00f
DTITLE=Tony McPhee - Bleachin' The Blues
DYEAR=1900
DGENRE=Blues
TTITLE0=When You're Down
TTITLE1=All You Women
TTITLE2=There's A Light (At The End Of The Dark)
TTITLE3=Went In Like A Lamb
TTITLE4=When Your Man Has Gone
TTITLE5=Many Times (I've Heard It Mentioned)
TTITLE6=All Last Night (And The Night Before)
TTITLE7=When You're Walkin' Down The Street
TTITLE8=Meeting Of The Minds
TTITLE9=Bleachin' The Blues
TTITLE10=If I Had Possession
TTITLE11=Love In Vain
TTITLE12=Floating Bridge
TTITLE13=Terraplane Blues
TTITLE14=Little Red Rooster
EXTD=ARD HTD Records HTD CD 72
EXTT0=
EXTT1=
EXTT2=
EXTT3=
EXTT4=
EXTT5=
EXTT6=
EXTT7=
EXTT8=
EXTT9=
EXTT10=
EXTT11=
EXTT12=
EXTT13=
EXTT14=
PLAYORDER=
